<?xml version="1.0" encoding="UTF-8"?>
<svg version="1.1" xmlns="http://www.w3.org/2000/svg" width="500" height="500">
<path d="M0 0 C165 0 330 0 500 0 C500 164.67 500 329.34 500 499 C335 499 170 499 0 499 C0 334.33 0 169.66 0 0 Z " fill="#000000" transform="translate(0,1)"/>
<path d="M0 0 C0 2.31 0 4.62 0 7 C4.29 7 8.58 7 13 7 C12.9969838 8.71995682 12.99396759 10.43991364 12.99085999 12.21199036 C12.95840574 34.07896483 12.98526524 55.9456382 13.0625 77.8125 C13.06554091 78.68222065 13.06858182 79.5519413 13.07171488 80.44801712 C13.2586226 132.14185735 14.37862016 183.31530181 20.19482422 234.734375 C20.96853229 241.59665159 21.63563731 248.46308979 22.22265625 255.34375 C22.30438583 256.26039429 22.38611542 257.17703857 22.47032166 258.12145996 C23.01782094 264.75523476 23.08080779 271.34587809 23 278 C19.78548731 279.60725635 16.56387464 279.05748185 13 279 C13 281.64 13 284.28 13 287 C11.74182465 287.00364563 10.48364929 287.00729126 9.18734741 287.01104736 C-2.95150752 287.04876672 -15.0901265 287.10732084 -27.22879982 287.18390274 C-33.46227359 287.22262345 -39.69562195 287.25516472 -45.92919922 287.27099609 C-79.01683471 287.36100444 -111.77527854 288.65168075 -144.74432373 291.4720459 C-151.61817401 292.05782833 -158.49530012 292.59835692 -165.37353516 293.12988281 C-166.4921311 293.21723064 -167.61072704 293.30457848 -168.76321983 293.39457321 C-169.79756975 293.47409855 -170.83191967 293.55362389 -171.89761353 293.63555908 C-172.81219141 293.70612141 -173.72676929 293.77668373 -174.66906166 293.84938431 C-176.44305066 293.96401221 -178.22231147 294 -180 294 C-180 291.69 -180 289.38 -180 287 C-183.96 287 -187.92 287 -192 287 C-191.99920441 285.37645599 -191.99840881 283.75291199 -191.99758911 282.08016968 C-191.99391055 266.41440521 -192.02261239 250.74900442 -192.0802784 235.08334923 C-192.1091431 227.03873562 -192.12816985 218.99437522 -192.12011719 210.94970703 C-192.08535263 169.22852539 -193.75768372 128.07571764 -197.87561417 86.55078411 C-199.10439795 74.1543975 -200.13508624 61.746685 -201.1244297 49.32900906 C-201.45342352 45.20427017 -201.78892055 41.0800701 -202.12450409 36.955863 C-202.22916363 35.66866785 -202.22916363 35.66866785 -202.3359375 34.35546875 C-202.40643185 33.48921718 -202.47692619 32.6229656 -202.54955673 31.73046398 C-202.9704295 26.47226883 -203.05591637 21.27488701 -203 16 C-200.59454362 14.79727181 -199.05003047 14.89928528 -196.375 14.9375 C-195.14910156 14.95103516 -195.14910156 14.95103516 -193.8984375 14.96484375 C-192.95871094 14.98224609 -192.95871094 14.98224609 -192 15 C-192 12.36 -192 9.72 -192 7 C-190.27117836 7.00119339 -190.27117836 7.00119339 -188.50743103 7.00241089 C-173.65056598 7.00760027 -158.79412049 6.95943023 -143.9375 6.875 C-142.74510586 6.86825886 -141.55271172 6.86151772 -140.32418442 6.8545723 C-99.07695191 6.60316967 -58.19158674 4.79441686 -17.13070679 0.88917542 C-15.88785919 0.77226852 -14.6450116 0.65536163 -13.36450195 0.53491211 C-12.29633743 0.43133896 -11.22817291 0.32776581 -10.12763977 0.22105408 C-6.74243305 -0.01820421 -3.39253133 -0.03656065 0 0 Z " fill="#010000" transform="translate(340,97)"/>
<path d="M0 0 C8.97586915 7.96475345 15.6549619 17.59890351 16.9765625 29.75390625 C17.83065685 45.54556553 14.60036384 57.81908262 3.9765625 69.75390625 C-3.85722932 78.08936947 -15.15290244 83.26697776 -26.49609375 83.96875 C-33.36422917 84.14062526 -39.39100167 83.86252768 -45.875 81.5078125 C-46.58398438 81.25902344 -47.29296875 81.01023437 -48.0234375 80.75390625 C-48.78011719 80.47546875 -49.53679687 80.19703125 -50.31640625 79.91015625 C-54.4601833 79.6709772 -57.20789404 81.63578909 -60.7109375 83.69140625 C-67.8253991 87.75390625 -67.8253991 87.75390625 -70.0234375 87.75390625 C-69.59559266 83.68938027 -69.11287049 80.05903057 -67.9609375 76.12890625 C-66.80125113 71.9540353 -66.01169288 68.84428769 -67.96875 64.80078125 C-68.83296427 63.28976511 -69.70321363 61.78219131 -70.578125 60.27734375 C-77.76562717 47.72835348 -79.25011742 35.78694785 -75.4609375 21.81640625 C-70.77543876 8.60132002 -61.28992351 -0.8887123 -49.0234375 -7.24609375 C-32.89016351 -13.88920657 -13.52289738 -10.74827899 0 0 Z " fill="#986B30" transform="translate(270.0234375,163.24609375)"/>
<path d="M0 0 C0 2.31 0 4.62 0 7 C4.29 7 8.58 7 13 7 C12.9969838 8.71995682 12.99396759 10.43991364 12.99085999 12.21199036 C12.95840574 34.07896483 12.98526524 55.9456382 13.0625 77.8125 C13.06554091 78.68222065 13.06858182 79.5519413 13.07171488 80.44801712 C13.2586226 132.14185735 14.37862016 183.31530181 20.19482422 234.734375 C20.96853229 241.59665159 21.63563731 248.46308979 22.22265625 255.34375 C22.30438583 256.26039429 22.38611542 257.17703857 22.47032166 258.12145996 C23.01782094 264.75523476 23.08080779 271.34587809 23 278 C22.01 277.67 21.02 277.34 20 277 C19.93006836 276.06994141 19.86013672 275.13988281 19.78808594 274.18164062 C17.672455 246.10814383 15.35818861 218.05431273 13 190 C12.67 218.71 12.34 247.42 12 277 C11.34 277 10.68 277 10 277 C10.00056554 276.07634927 10.00056554 276.07634927 10.0011425 275.13403893 C10.88789157 189.70869849 10.88789157 189.70869849 6.1875 104.5 C6.08740442 103.48124346 6.08740442 103.48124346 5.98528671 102.44190598 C5.2994949 95.53313065 4.55060689 88.63218356 3.7578125 81.73486328 C2.65183114 72.08100244 1.79708572 62.4049924 0.93862915 52.7265625 C0.64128772 49.42426234 0.32484249 46.12404235 0.00126648 42.82421875 C-0.69914982 35.19463786 -1.20551379 27.57853459 -1.54760742 19.92407227 C-1.59186607 18.96404549 -1.63612473 18.00401871 -1.68172455 17.01490021 C-1.78930861 14.6766641 -1.89537526 12.33837007 -2 10 C-15.69205215 10.10796426 -29.3840563 10.22068711 -43.07602024 10.33933926 C-49.43502266 10.39429884 -55.79402984 10.44767287 -62.15307617 10.49731445 C-68.29987645 10.5453593 -74.44662685 10.5977113 -80.59336662 10.65294075 C-82.9282601 10.67318419 -85.26316715 10.69192462 -87.5980854 10.70907402 C-98.73080304 10.79174469 -109.81447835 10.87520491 -120.91563416 11.78627014 C-125.94203978 12.13457284 -130.96464199 12.08439148 -136 12 C-136 11.67 -136 11.34 -136 11 C-133.525 10.505 -133.525 10.505 -131 10 C-150.14 9.67 -169.28 9.34 -189 9 C-189 10.98 -189 12.96 -189 15 C-185.37 15 -181.74 15 -178 15 C-178 15.33 -178 15.66 -178 16 C-181.63 16 -185.26 16 -189 16 C-189.04147229 38.2710333 -189.01965475 60.54158343 -188.9375 82.8125 C-188.93452534 83.63383738 -188.93155067 84.45517475 -188.92848587 85.30140114 C-188.73980712 135.88140494 -187.47071875 185.99449883 -181.74023438 236.30371094 C-180.64582575 245.96645611 -179.83633444 255.52254269 -179.9375 265.25 C-179.94201172 266.10207031 -179.94652344 266.95414062 -179.95117188 267.83203125 C-179.96272256 269.88805281 -179.9806447 271.9440371 -180 274 C-182.35131236 270.47303145 -182.5974041 267.57511554 -182.9921875 263.4765625 C-183.11338455 262.30512192 -183.11338455 262.30512192 -183.23703003 261.11001587 C-184.39625735 249.54961482 -185.24128794 237.95887399 -186.125 226.375 C-186.74375 218.33125 -187.3625 210.2875 -188 202 C-188 229.72 -188 257.44 -188 286 C-188.99 286 -189.98 286 -191 286 C-191.00146656 285.38033639 -191.00293312 284.76067278 -191.00444412 284.12223148 C-191.0421203 268.77476754 -191.10189712 253.42754462 -191.18390274 238.08026218 C-191.22307668 230.65726566 -191.25566489 223.23436641 -191.27099609 215.8112793 C-191.34784704 180.60594097 -192.19477182 145.74845241 -195.73322105 110.68380928 C-196.21063104 105.88104143 -196.65365279 101.07506008 -197.09960938 96.26928711 C-197.26234306 94.52094404 -197.42514166 92.77260701 -197.5880127 91.02427673 C-197.66556101 90.19133087 -197.74310932 89.35838501 -197.82300758 88.50019836 C-198.15307941 84.96825131 -198.48711453 81.43668303 -198.82166862 77.90515804 C-199.92059749 66.2377677 -200.86627966 54.56049678 -201.75 42.875 C-201.81502716 42.0284787 -201.88005432 41.1819574 -201.947052 40.30978394 C-203.186691 24.08372023 -203.186691 24.08372023 -203 16 C-200.59454362 14.79727181 -199.05003047 14.89928528 -196.375 14.9375 C-195.14910156 14.95103516 -195.14910156 14.95103516 -193.8984375 14.96484375 C-192.95871094 14.98224609 -192.95871094 14.98224609 -192 15 C-192 12.36 -192 9.72 -192 7 C-190.27117836 7.00119339 -190.27117836 7.00119339 -188.50743103 7.00241089 C-173.65056598 7.00760027 -158.79412049 6.95943023 -143.9375 6.875 C-142.74510586 6.86825886 -141.55271172 6.86151772 -140.32418442 6.8545723 C-99.07695191 6.60316967 -58.19158674 4.79441686 -17.13070679 0.88917542 C-15.88785919 0.77226852 -14.6450116 0.65536163 -13.36450195 0.53491211 C-12.29633743 0.43133896 -11.22817291 0.32776581 -10.12763977 0.22105408 C-6.74243305 -0.01820421 -3.39253133 -0.03656065 0 0 Z " fill="#574627" transform="translate(340,97)"/>
<path d="M0 0 C0.33 0 0.66 0 1 0 C1 43.56 1 87.12 1 132 C1.66 132 2.32 132 3 132 C3 100.65 3 69.3 3 37 C3.33 37 3.66 37 4 37 C6.43112507 62.89733227 8.67766706 88.79689366 10.54615784 114.74118042 C11.008741 121.16253082 11.49841598 127.58156914 12 134 C9.36 134 6.72 134 4 134 C4 136.64 4 139.28 4 142 C2.11273697 142.00546844 2.11273697 142.00546844 0.18734741 142.01104736 C-11.95150752 142.04876672 -24.0901265 142.10732084 -36.22879982 142.18390274 C-42.46227359 142.22262345 -48.69562195 142.25516472 -54.92919922 142.27099609 C-88.01683471 142.36100444 -120.77527854 143.65168075 -153.74432373 146.4720459 C-160.61817401 147.05782833 -167.49530012 147.59835692 -174.37353516 148.12988281 C-175.4921311 148.21723064 -176.61072704 148.30457848 -177.76321983 148.39457321 C-178.79756975 148.47409855 -179.83191967 148.55362389 -180.89761353 148.63555908 C-181.81219141 148.70612141 -182.72676929 148.77668373 -183.66906166 148.84938431 C-185.44305066 148.96401221 -187.22231147 149 -189 149 C-189 146.69 -189 144.38 -189 142 C-192.96 142 -196.92 142 -201 142 C-201 99.1 -201 56.2 -201 12 C-200.67 12 -200.34 12 -200 12 C-200 54.57 -200 97.14 -200 141 C-199.34 140.67 -198.68 140.34 -198 140 C-198 109.64 -198 79.28 -198 48 C-197.67 48 -197.34 48 -197 48 C-196.94180084 48.71171356 -196.88360168 49.42342712 -196.82363892 50.15670776 C-196.26764434 56.95017555 -195.70909777 63.74342951 -195.1478672 70.5364666 C-194.85959968 74.02664344 -194.57223099 77.51688886 -194.28710938 81.00732422 C-193.05944075 96.02866378 -191.81679587 111.0364889 -190 126 C-189.34 124.68 -188.68 123.36 -188 122 C-187.67 127.61 -187.34 133.22 -187 139 C-171.64550665 139.00647147 -156.29173585 138.96588473 -140.9375 138.875 C-139.79276215 138.86825886 -138.64802429 138.86151772 -137.46859741 138.8545723 C-96.83923056 138.59668762 -56.56818308 136.68496781 -16.11952209 132.88917542 C-14.86384933 132.77226852 -13.60817657 132.65536163 -12.31445312 132.53491211 C-10.6907782 132.37955238 -10.6907782 132.37955238 -9.03430176 132.22105408 C-6.02992862 132.00218035 -3.01233525 132 0 132 C0 88.44 0 44.88 0 0 Z " fill="#725C32" transform="translate(349,242)"/>
<path d="M0 0 C11.64840105 2.93265626 20.23577792 9.58360588 26.75 19.5625 C32.64056892 30.00487218 34.72873418 42.8002607 31.515625 54.44140625 C29.83052864 59.01301026 28.14947948 63.27566249 25.125 67.125 C22.69775929 71.23263813 23.60782694 74.33685985 24.5 78.875 C24.67402344 79.87273437 24.84804688 80.87046875 25.02734375 81.8984375 C25.49637577 84.56199158 25.98871319 87.21928697 26.5 89.875 C23.04827337 88.57142239 19.95048482 87.01261308 16.75 85.1875 C11.49556601 82.48927714 8.21166923 82.67739194 2.5 83.875 C3.18835938 82.84052734 3.18835938 82.84052734 3.890625 81.78515625 C12.67272866 68.3352538 17.58707137 56.03333277 15 39.72265625 C12.1209566 27.01233395 5.73313103 14.7181471 -5.56933594 7.56542969 C-10.08622744 5.04581675 -14.74521555 2.90338985 -19.5 0.875 C-13.6794838 -3.00534413 -6.58160837 -1.31476574 0 0 Z " fill="#9E7539" transform="translate(274.5,151.125)"/>
<path d="M0 0 C0.66 0 1.32 0 2 0 C4.32564484 10.39401443 4.92730649 20.9508449 5.7265625 31.54296875 C5.86301112 33.29907161 5.99997275 35.05513469 6.13745117 36.81115723 C6.63949608 43.26945954 7.13166896 49.72852622 7.625 56.1875 C8.73875 70.645625 9.8525 85.10375 11 100 C11.33 67.66 11.66 35.32 12 2 C12.66 1.67 13.32 1.34 14 1 C13.99870118 1.6604749 13.99740236 2.3209498 13.99606419 3.00143909 C13.95717667 24.43863436 13.98284477 45.8754249 14.0625 67.3125 C14.06547466 68.12788884 14.06844933 68.94327767 14.07151413 69.78337526 C14.26094744 120.19836299 15.56298555 170.14183929 21.25976562 220.2878418 C22.35191324 229.95607199 23.16372026 239.51728279 23.0625 249.25 C23.05798828 250.10207031 23.05347656 250.95414063 23.04882812 251.83203125 C23.03727744 253.88805281 23.0193553 255.9440371 23 258 C20.64868764 254.47303145 20.4025959 251.57511554 20.0078125 247.4765625 C19.88661545 246.30512192 19.88661545 246.30512192 19.76296997 245.11001587 C18.60374265 233.54961482 17.75871206 221.95887399 16.875 210.375 C16.25625 202.33125 15.6375 194.2875 15 186 C15 213.72 15 241.44 15 270 C14.01 270 13.02 270 12 270 C11.99853344 269.38033639 11.99706688 268.76067278 11.99555588 268.12223148 C11.9578797 252.77476754 11.89810288 237.42754462 11.81609726 222.08026218 C11.77692332 214.65726566 11.74433511 207.23436641 11.72900391 199.8112793 C11.65215296 164.60594097 10.80522818 129.74845241 7.26677895 94.68380928 C6.78936896 89.88104143 6.34634721 85.07506008 5.90039062 80.26928711 C5.73765694 78.52094404 5.57485834 76.77260701 5.4119873 75.02427673 C5.33443899 74.19133087 5.25689068 73.35838501 5.17699242 72.50019836 C4.84692059 68.96825131 4.51288547 65.43668303 4.17833138 61.90515804 C3.07940251 50.2377677 2.13372034 38.56049678 1.25 26.875 C1.18497284 26.0284787 1.11994568 25.1819574 1.052948 24.30978394 C-0.186691 8.08372023 -0.186691 8.08372023 0 0 Z " fill="#CEB76F" transform="translate(137,113)"/>
<path d="M0 0 C0.66 0 1.32 0 2 0 C1.9959358 0.59452437 1.9918716 1.18904875 1.98768425 1.80158901 C1.85797255 21.51370321 1.83053452 41.22507354 1.875 60.9375 C1.87660551 61.70069408 1.87821101 62.46388816 1.87986517 63.25020933 C2.01423639 123.0872073 5.49932007 182.15459161 11.50102234 241.69125366 C13.389866 260.60948893 13.389866 260.60948893 13 270 C12.01 269.67 11.02 269.34 10 269 C9.93006836 268.06994141 9.86013672 267.13988281 9.78808594 266.18164062 C7.672455 238.10814383 5.35818861 210.05431273 3 182 C2.67 210.71 2.34 239.42 2 269 C1.34 269 0.68 269 0 269 C0.00037703 268.38423285 0.00075405 267.76846569 0.0011425 267.13403893 C0.0105905 247.21415605 -0.03296874 227.294659 -0.125 207.375 C-0.12847521 206.61860418 -0.13195043 205.86220837 -0.13553095 205.08289146 C-0.34355075 160.97166242 -1.22830019 117.25079089 -6.2890625 73.38085938 C-7.03339689 66.86180985 -7.63498142 60.33507025 -8.18359375 53.796875 C-8.30745705 52.35468597 -8.30745705 52.35468597 -8.43382263 50.88336182 C-9.05721769 43.24135068 -9.22108356 35.66423021 -9 28 C-8.34 28 -7.68 28 -7 28 C-5.00585368 42.11737499 -3.95134194 56.28828309 -2.875 70.5 C-2.25625 78.585 -1.6375 86.67 -1 95 C-0.67 63.65 -0.34 32.3 0 0 Z " fill="#D1BC73" transform="translate(350,105)"/>
<path d="M0 0 C0.33 0 0.66 0 1 0 C1 42.57 1 85.14 1 129 C1.66 128.67 2.32 128.34 3 128 C3 97.64 3 67.28 3 36 C3.33 36 3.66 36 4 36 C4.05819916 36.71171356 4.11639832 37.42342712 4.17636108 38.15670776 C4.73235566 44.95017555 5.29090223 51.74342951 5.8521328 58.5364666 C6.14040032 62.02664344 6.42776901 65.51688886 6.71289062 69.00732422 C7.94055925 84.02866378 9.18320413 99.0364889 11 114 C11.66 112.68 12.32 111.36 13 110 C13.33 115.61 13.66 121.22 14 127 C43.7 127 73.4 127 104 127 C104 127.33 104 127.66 104 128 C96.41 128.33 88.82 128.66 81 129 C81 129.33 81 129.66 81 130 C75.555 130.99 75.555 130.99 70 132 C70 132.33 70 132.66 70 133 C62.22219741 133.57118067 54.44427266 134.14067477 46.66625977 134.70898438 C44.01909574 134.90260403 41.37196015 135.09661287 38.72485352 135.29101562 C34.9247157 135.5700293 31.12447853 135.84765309 27.32421875 136.125 C26.13664474 136.21249512 24.94907074 136.29999023 23.72550964 136.39013672 C22.62459488 136.47021973 21.52368011 136.55030273 20.3894043 136.6328125 C19.41899704 136.70387207 18.44858978 136.77493164 17.44877625 136.84814453 C15.63529588 136.96060352 13.81696397 137 12 137 C12 134.69 12 132.38 12 130 C8.04 130 4.08 130 0 130 C0 87.1 0 44.2 0 0 Z " fill="#624823" transform="translate(148,254)"/>
<path d="M0 0 C0 0.33 0 0.66 0 1 C30.69 1.495 30.69 1.495 62 2 C62 2.33 62 2.66 62 3 C60.89706604 3.00808685 59.79413208 3.01617371 58.65777588 3.02450562 C48.12964756 3.10287701 37.60163427 3.19082209 27.07365799 3.28752708 C21.66452713 3.33692166 16.25541069 3.3832429 10.84619141 3.421875 C-21.31241877 3.6241822 -21.31241877 3.6241822 -53.39941406 5.58447266 C-59.27012177 6.09040715 -65.11157817 6.08991259 -71 6 C-71 5.67 -71 5.34 -71 5 C-68.525 4.505 -68.525 4.505 -66 4 C-85.14 3.67 -104.28 3.34 -124 3 C-124 4.98 -124 6.96 -124 9 C-120.37 9 -116.74 9 -113 9 C-113 9.33 -113 9.66 -113 10 C-113.78246094 10.06058594 -114.56492188 10.12117188 -115.37109375 10.18359375 C-116.38300781 10.26738281 -117.39492187 10.35117188 -118.4375 10.4375 C-119.44683594 10.51871094 -120.45617187 10.59992188 -121.49609375 10.68359375 C-123.93640779 10.73211468 -123.93640779 10.73211468 -125 12 C-125.10737146 13.35293676 -125.14678638 14.71135419 -125.15821838 16.0684967 C-125.17290161 17.38316673 -125.17290161 17.38316673 -125.18788147 18.72439575 C-125.19363693 19.69327728 -125.1993924 20.66215881 -125.20532227 21.66040039 C-125.22017166 23.18217644 -125.22017166 23.18217644 -125.23532104 24.73469543 C-125.26704128 28.10565821 -125.2917349 31.4766351 -125.31640625 34.84765625 C-125.3369667 37.17793658 -125.35796292 39.5082131 -125.37937927 41.83848572 C-125.43469386 47.98533047 -125.4840616 54.13220939 -125.53222656 60.27911377 C-125.58237323 66.54613299 -125.63809488 72.81310231 -125.69335938 79.08007812 C-125.80105569 91.38667617 -125.902475 103.69331745 -126 116 C-126.33 116 -126.66 116 -127 116 C-128.38642786 103.29022277 -129.46736908 90.56090445 -130.47265625 77.81640625 C-130.53694195 77.00252819 -130.60122765 76.18865013 -130.6674614 75.3501091 C-131.27304377 67.67442521 -131.87267444 59.9982781 -132.47094727 52.32202148 C-132.80142882 48.08423693 -133.13481666 43.8466887 -133.46990776 39.60926628 C-133.65666118 37.23582494 -133.83997198 34.8621336 -134.02320862 32.48841858 C-134.13776091 31.0372674 -134.25249212 29.58613033 -134.36743164 28.13500977 C-134.46576797 26.87406998 -134.56410431 25.61313019 -134.66542053 24.3139801 C-134.95201056 21.47533112 -135.43468058 18.79067135 -136 16 C-136.03824623 13.66698014 -136.04574284 11.33288492 -136 9 C-133.03 9 -130.06 9 -127 9 C-127 6.36 -127 3.72 -127 1 C-113.54201286 0.86841723 -100.0840154 0.73794985 -86.62600422 0.60884857 C-80.37476898 0.54884732 -74.12353772 0.48848315 -67.87231445 0.42724609 C-61.82278961 0.36799895 -55.77325576 0.3097619 -49.72371483 0.25218201 C-47.43283946 0.23020811 -45.14196736 0.2078897 -42.85109901 0.18519592 C-28.56685091 0.04397086 -14.2849563 -0.0296394 0 0 Z " fill="#A78243" transform="translate(275,103)"/>
<path d="M0 0 C0 30.69 0 61.38 0 93 C-0.33 93 -0.66 93 -1 93 C-2.7726616 74.29719477 -4.39862055 55.58341064 -5.91516113 36.85809326 C-6.09597613 34.62854146 -6.27801352 32.39908845 -6.46130371 30.16973877 C-6.7214529 26.99886705 -6.97664979 23.82763399 -7.23046875 20.65625 C-7.308452 19.71361298 -7.38643524 18.77097595 -7.46678162 17.79977417 C-7.90951898 12.17975122 -8.0707215 6.63761622 -8 1 C-5 0 -5 0 0 0 Z " fill="#030302" transform="translate(148,114)"/>
<path d="M0 0 C0.33 0 0.66 0 1 0 C1.05819916 0.70283112 1.11639832 1.40566223 1.17636108 2.12979126 C1.73407598 8.86300628 2.29265728 15.59614897 2.8521328 22.32921791 C3.13950408 25.78796345 3.42657851 29.24673301 3.71289062 32.70556641 C4.04461707 36.7126449 4.37762452 40.71961564 4.7109375 44.7265625 C4.81968201 46.0375592 4.92842651 47.34855591 5.04046631 48.69927979 C5.536893 54.64179661 6.04648563 60.58202554 6.61035156 66.51855469 C6.70418121 67.51019623 6.79801086 68.50183777 6.89468384 69.52352905 C7.06624258 71.31466295 7.24173897 73.10542722 7.42245483 74.8956604 C7.97161372 80.6118035 8.09131008 86.25903268 8 92 C5.36 92 2.72 92 0 92 C0 61.64 0 31.28 0 0 Z " fill="#100C06" transform="translate(151,290)"/>
<path d="M0 0 C2.64 0 5.28 0 8 0 C8 28.38 8 56.76 8 86 C7.67 86 7.34 86 7 86 C4.28572372 57.35598736 1.92688144 28.70786952 0 0 Z " fill="#030201" transform="translate(341,107)"/>
<path d="M0 0 C0.33 0 0.66 0 1 0 C2.6473375 13.64873443 3.81726239 27.31819828 4.85986328 41.02539062 C5.1267208 44.52255108 5.40099689 48.01907944 5.67578125 51.515625 C5.84940238 53.77079919 6.02259484 56.02600644 6.1953125 58.28125 C6.27653351 59.31060669 6.35775452 60.33996338 6.44143677 61.4005127 C6.90719851 67.61398199 7.0992713 73.76957482 7 80 C4.69 80 2.38 80 0 80 C0 53.6 0 27.2 0 0 Z " fill="#080704" transform="translate(353,293)"/>
<path d="M0 0 C22.11 0 44.22 0 67 0 C67 0.33 67 0.66 67 1 C62.545 1.495 62.545 1.495 58 2 C58.99 2.66 59.98 3.32 61 4 C55.04600703 4.46007602 49.09112062 4.9048745 43.13500977 5.33666992 C41.11680772 5.48500817 39.09888671 5.63723113 37.08129883 5.79370117 C24.59024689 6.75932811 12.48642677 7.15628652 0 6 C0 4.02 0 2.04 0 0 Z " fill="#705A31" transform="translate(151,106)"/>
<path d="M0 0 C3.5386994 1.65139305 4.81070153 2.71605229 7 6 C7.50326079 9.85833276 7.31669325 11.50857943 5.1875 14.8125 C2.37122296 17.62877704 0.55359202 17.93848978 -3.375 18.375 C-7 18 -7 18 -9.9375 15.9375 C-12.5243831 12.25315134 -12.63151199 10.42058395 -12 6 C-9.09517494 -0.07372512 -6.5822422 -0.44625371 0 0 Z " fill="#050401" transform="translate(204,328)"/>
<path d="M0 0 C10.74695122 -0.42987805 10.74695122 -0.42987805 15 3 C16.55950551 4.55950551 16.28196698 6.08877131 16.375 8.25 C16.30263594 11.74017419 16.02881997 12.95130419 14.1875 16.0625 C9.38336838 18.98265844 5.56347225 18.33514893 0 18 C0 12.06 0 6.12 0 0 Z " fill="#050301" transform="translate(216,328)"/>
<path d="M0 0 C10.9030837 -0.43612335 10.9030837 -0.43612335 15 3 C16.55024464 6.10048928 16.28992015 8.57894218 16 12 C13.86320715 15.38939556 12.8225233 16.72582557 9 18 C6.03 18 3.06 18 0 18 C0 12.06 0 6.12 0 0 Z " fill="#040302" transform="translate(318,328)"/>
<path d="M0 0 C32.01 0 64.02 0 97 0 C97 0.33 97 0.66 97 1 C65.32 1 33.64 1 1 1 C1.33 3.64 1.66 6.28 2 9 C2.06759292 10.6609202 2.10009993 12.32400644 2.08229065 13.98620605 C2.07525116 14.8891037 2.06821167 15.79200134 2.06095886 16.72225952 C2.04801285 17.6846756 2.03506683 18.64709167 2.02172852 19.63867188 C2.01212097 20.67371857 2.00251343 21.70876526 1.99261475 22.775177 C1.95981363 26.17310804 1.9194101 29.5709028 1.87890625 32.96875 C1.85458665 35.33385752 1.83074403 37.69896998 1.80735779 40.06408691 C1.74469994 46.27174542 1.67558189 52.47931568 1.60510254 58.68688965 C1.53425333 65.02819825 1.4695358 71.36956914 1.40429688 77.7109375 C1.27552056 90.14069346 1.13991699 102.5703648 1 115 C0.67 115 0.34 115 0 115 C-1.33220219 103.83739442 -1.03335173 92.70253033 -0.87890625 81.484375 C-0.85456103 79.41644865 -0.83071981 77.34851631 -0.80735779 75.28057861 C-0.74495429 69.87523501 -0.67576714 64.46999937 -0.60510254 59.0647583 C-0.5340205 53.53410702 -0.46944332 48.00338006 -0.40429688 42.47265625 C-0.2758495 31.6483543 -0.14022589 20.82415533 0 10 C-2.64 10.33 -5.28 10.66 -8 11 C-8.33 12.32 -8.66 13.64 -9 15 C-9 12.69 -9 10.38 -9 8 C-6.03 8 -3.06 8 0 8 C0 5.36 0 2.72 0 0 Z " fill="#73643B" transform="translate(148,104)"/>
<path d="M0 0 C0.33 0 0.66 0 1 0 C1.63475027 7.48538743 2.26940565 14.97078289 2.90394497 22.4561882 C3.19869471 25.93319832 3.49347527 29.41020582 3.78833008 32.88720703 C4.12851379 36.8987549 4.46855658 40.91031471 4.80859375 44.921875 C4.91280136 46.15049255 5.01700897 47.37911011 5.12437439 48.6449585 C5.3224783 50.9825547 5.5200124 53.32019929 5.71690369 55.65789795 C5.90605517 57.89093145 6.09809502 60.12372213 6.29298401 62.35626221 C6.38385788 63.40916443 6.47473175 64.46206665 6.56835938 65.546875 C6.64928833 66.47177734 6.73021729 67.39667969 6.81359863 68.34960938 C7.11611426 72.65099721 7.10732028 76.94035735 7.0625 81.25 C7.05798828 82.10207031 7.05347656 82.95414062 7.04882812 83.83203125 C7.03727744 85.88805281 7.0193553 87.9440371 7 90 C4.68647244 86.52970867 4.42765903 83.77069524 4.04296875 79.7421875 C3.92347115 78.58201614 3.92347115 78.58201614 3.80155945 77.39840698 C2.62506003 65.68703289 1.64055712 53.956014 0.65795898 42.22705078 C0.36823774 38.77247574 0.07001852 35.31868612 -0.22999859 31.86499214 C-0.51721256 28.5380835 -0.79510203 25.21041015 -1.07421875 21.8828125 C-1.18247482 20.64749786 -1.2907309 19.41218323 -1.40226746 18.13943481 C-1.49599136 16.99659027 -1.58971527 15.85374573 -1.6862793 14.67626953 C-1.77129196 13.67355011 -1.85630463 12.67083069 -1.94389343 11.63772583 C-1.99670478 9.15491746 -1.71923243 7.35581904 -1 5 C-0.65939189 3.33480481 -0.32441604 1.66842534 0 0 Z " fill="#988049" transform="translate(153,281)"/>
<path d="M0 0 C0 1.98 0 3.96 0 6 C-23.1 6 -46.2 6 -70 6 C-70 5.67 -70 5.34 -70 5 C-61.90697719 4.3447926 -53.81371827 3.69261455 -45.72014523 3.04424286 C-41.96150287 2.74304559 -38.20294857 2.44082746 -34.44458008 2.13623047 C-30.81378252 1.84201103 -27.18277412 1.55053309 -23.55160713 1.26091003 C-22.17014363 1.150248 -20.78875727 1.03861836 -19.40745354 0.92597961 C-17.46447309 0.76770943 -15.52118103 0.61327923 -13.57788086 0.45898438 C-11.92241493 0.32574768 -11.92241493 0.32574768 -10.23350525 0.18981934 C-6.81521101 -0.01084783 -3.42338865 -0.03179309 0 0 Z " fill="#040301" transform="translate(350,376)"/>
<path d="M0 0 C0 0.66 0 1.32 0 2 C-2.68702966 2.31702641 -5.37453124 2.62861361 -8.0625 2.9375 C-8.79533203 3.02451172 -9.52816406 3.11152344 -10.28320312 3.20117188 C-17.86151529 4.06452389 -25.35723614 4.49048241 -33 5 C-11.22 5.495 -11.22 5.495 11 6 C11 4.68 11 3.36 11 2 C9.02 2 7.04 2 5 2 C5 1.67 5 1.34 5 1 C7.31 1 9.62 1 12 1 C12 2.98 12 4.96 12 7 C-11.43 7 -34.86 7 -59 7 C-57 4 -57 4 -54.95309448 3.48738098 C-53.69023117 3.39078438 -53.69023117 3.39078438 -52.40185547 3.29223633 C-51.44681122 3.21237991 -50.49176697 3.1325235 -49.50778198 3.05024719 C-48.4713858 2.97823593 -47.43498962 2.90622467 -46.3671875 2.83203125 C-45.30138458 2.74749191 -44.23558167 2.66295258 -43.13748169 2.57585144 C-39.71752399 2.30824401 -36.29642531 2.06055814 -32.875 1.8125 C-30.59105054 1.63468331 -28.30719457 1.45566138 -26.0234375 1.27539062 C-23.82560267 1.10570743 -21.62768798 0.93705491 -19.4296875 0.76953125 C-18.40543671 0.6914473 -17.38118591 0.61336334 -16.32589722 0.53291321 C-10.8663573 0.13828474 -5.47366459 -0.08012423 0 0 Z " fill="#6F5127" transform="translate(326,98)"/>
<path d="M0 0 C0.66 0 1.32 0 2 0 C3.52365523 7.58786817 4.48559877 15.08699327 5.0703125 22.80078125 C5.15626678 23.88078903 5.24222107 24.96079681 5.33078003 26.0735321 C5.50977672 28.33633074 5.68610645 30.59934181 5.85986328 32.86254883 C6.12565244 36.32098954 6.40003053 39.77866878 6.67578125 43.23632812 C6.84945836 45.44527324 7.02265242 47.6542564 7.1953125 49.86328125 C7.27653351 50.8914949 7.35775452 51.91970856 7.44143677 52.9790802 C7.79892069 57.66482848 8.10267945 62.29618441 8 67 C7.34 67 6.68 67 6 67 C5.67 68.32 5.34 69.64 5 71 C4.34375938 63.07199082 3.69151538 55.14366691 3.04424286 47.214921 C2.74350232 43.53252284 2.44143352 39.85024409 2.13623047 36.16821289 C1.84124151 32.60879323 1.54987059 29.04909356 1.26091003 25.48917961 C1.09718069 23.48343353 0.92979394 21.47798708 0.7623291 19.47254944 C0.2365222 12.95611453 -0.12422914 6.53755843 0 0 Z " fill="#B39D5E" transform="translate(137,113)"/>
<path d="M0 0 C0.33 0 0.66 0 1 0 C1.57656577 6.90048188 2.14535774 13.80157432 2.70898438 20.703125 C2.90124387 23.04636828 3.09522222 25.38947123 3.29101562 27.73242188 C3.57363832 31.11812646 3.84988514 34.50430304 4.125 37.890625 C4.21249512 38.92237854 4.29999023 39.95413208 4.39013672 41.01715088 C4.95129514 48.02527997 5.09831997 54.97070703 5 62 C4.01 61.67 3.02 61.34 2 61 C1.59055009 55.70218802 1.18163985 50.40433474 0.77319336 45.10644531 C0.6346637 43.3105359 0.49599585 41.51463714 0.35717773 39.71875 C-0.45982069 29.14791123 -1.26150431 18.57666699 -2 8 C-1.34 8 -0.68 8 0 8 C0 5.36 0 2.72 0 0 Z " fill="#A6894C" transform="translate(358,313)"/>
<path d="M0 0 C3.0625 0.5 3.0625 0.5 5.4375 2.125 C7.54956506 5.21186432 7.67445145 6.8282913 7.0625 10.5 C5.4375 12.875 5.4375 12.875 3.0625 14.5 C-0.1875 14.75 -0.1875 14.75 -2.9375 14.5 C-2.9375 13.84 -2.9375 13.18 -2.9375 12.5 C-3.5975 12.5 -4.2575 12.5 -4.9375 12.5 C-6.34207737 9.69084526 -6.18645157 7.61189466 -5.9375 4.5 C-4.37581884 1.20311756 -3.62602767 0.6171962 0 0 Z " fill="#130D05" transform="translate(215.9375,192.5)"/>
<path d="M0 0 C10.19669169 -0.02319031 20.39337709 -0.0409492 30.5900898 -0.05181217 C35.32504331 -0.05702636 40.05997876 -0.06409742 44.79492188 -0.07543945 C49.36606905 -0.08632037 53.93719887 -0.09228788 58.508358 -0.09487724 C60.25062203 -0.09672211 61.99288513 -0.10032465 63.73514175 -0.10573006 C66.17908009 -0.11300955 68.62294706 -0.11398803 71.06689453 -0.11352539 C71.78403122 -0.11712067 72.50116791 -0.12071594 73.24003601 -0.12442017 C77.26475055 -0.1161989 81.05103886 0.22271536 85 1 C85 1.33 85 1.66 85 2 C69.97923168 3.25758381 55.07854832 4.35478937 40 4 C40 3.67 40 3.34 40 3 C43.63 2.67 47.26 2.34 51 2 C34.17 1.67 17.34 1.34 0 1 C0 0.67 0 0.34 0 0 Z " fill="#95692F" transform="translate(171,382)"/>
<path d="M0 0 C3.13630966 0.54885419 4.42744557 0.98113919 6.5 3.4375 C7.07170192 6.20938808 7.07170192 8.66561192 6.5 11.4375 C4.43531073 13.88453913 3.10855973 14.31578805 0 14.9375 C-2.5 14.4375 -2.5 14.4375 -4.8125 12.25 C-6.64956543 9.18822428 -7.213937 7.9179429 -6.5 4.4375 C-4.50108769 1.69824979 -3.36650098 0.58913767 0 0 Z " fill="#0D0904" transform="translate(239.5,192.5625)"/>
<path d="M0 0 C0 1.32 0 2.64 0 4 C-17.49 4 -34.98 4 -53 4 C-53 3.67 -53 3.34 -53 3 C-48.02431834 2.56397072 -43.04794897 2.13721998 -38.07080078 1.71826172 C-36.38537269 1.57516839 -34.70014061 1.42974314 -33.01513672 1.28173828 C-21.97375065 0.3138887 -11.08695416 -0.20773613 0 0 Z " fill="#080603" transform="translate(337,100)"/>
<path d="M0 0 C4.35653019 1.39038198 4.35653019 1.39038198 5.9375 3.9375 C6.4375 6.875 6.4375 6.875 5.9375 9.9375 C3.75 12.375 3.75 12.375 0.9375 13.9375 C-1.95731608 13.86857581 -3.46935358 13.32611317 -5.875 11.75 C-7.67222017 9.00687448 -7.52024125 7.14168874 -7.0625 3.9375 C-4.87947885 0.66296827 -3.97767861 -0.08117711 0 0 Z " fill="#0B0804" transform="translate(264.0625,193.0625)"/>
<path d="M0 0 C17.49 0 34.98 0 53 0 C53 0.33 53 0.66 53 1 C51.46279297 1.09087891 51.46279297 1.09087891 49.89453125 1.18359375 C48.53384305 1.26805026 47.17316657 1.35269567 45.8125 1.4375 C45.13896484 1.47681641 44.46542969 1.51613281 43.77148438 1.55664062 C40.98538641 1.73332001 38.27364733 1.94448992 35.53515625 2.5 C31.92249717 3.21251212 28.29426834 3.37236022 24.625 3.5625 C23.8407666 3.6049585 23.0565332 3.64741699 22.24853516 3.69116211 C14.82796085 4.06316387 7.42842388 4.0986074 0 4 C0 2.68 0 1.36 0 0 Z " fill="#080603" transform="translate(152,107)"/>
<path d="M0 0 C16.17 0 32.34 0 49 0 C49 0.33 49 0.66 49 1 C44.43333342 1.43620966 39.86590392 1.86294216 35.29760742 2.28173828 C33.75082825 2.42478375 32.2042666 2.5702057 30.65795898 2.71826172 C20.39886681 3.69849347 10.30927153 4.20510294 0 4 C0 2.68 0 1.36 0 0 Z " fill="#020100" transform="translate(163,384)"/>
<path d="M0 0 C10.74695122 -0.42987805 10.74695122 -0.42987805 15 3 C16.55950551 4.55950551 16.28196698 6.08877131 16.375 8.25 C16.30263594 11.74017419 16.02881997 12.95130419 14.1875 16.0625 C9.38336838 18.98265844 5.56347225 18.33514893 0 18 C0 12.06 0 6.12 0 0 Z M3 2 C3 6.62 3 11.24 3 16 C9.35974576 16.44281575 9.35974576 16.44281575 12.4375 15 C14.5552381 12.28929524 14.57130492 10.25128638 14.37890625 6.875 C14.11249053 4.83661813 14.11249053 4.83661813 12.4375 3 C9.35974576 1.55718425 9.35974576 1.55718425 3 2 Z " fill="#7F5D2D" transform="translate(216,328)"/>
<path d="M0 0 C3.5386994 1.65139305 4.81070153 2.71605229 7 6 C7.50326079 9.85833276 7.31669325 11.50857943 5.1875 14.8125 C2.37122296 17.62877704 0.55359202 17.93848978 -3.375 18.375 C-7 18 -7 18 -9.9375 15.9375 C-12.5243831 12.25315134 -12.63151199 10.42058395 -12 6 C-9.09517494 -0.07372512 -6.5822422 -0.44625371 0 0 Z M-8.9375 3.625 C-10.31565201 6.70557508 -10.48746608 8.65737548 -10 12 C-8.5 14.5 -8.5 14.5 -6 16 C-2.68876368 16.48288863 -0.703451 16.29618989 2.375 15 C4.57312471 12.29461574 4.57358548 10.29130645 4.37890625 6.875 C4.11249053 4.83661813 4.11249053 4.83661813 2.4375 3 C-1.60744234 1.34053648 -5.4305539 0.68369037 -8.9375 3.625 Z " fill="#725226" transform="translate(204,328)"/>
<path d="M0 0 C10.9030837 -0.43612335 10.9030837 -0.43612335 15 3 C16.55024464 6.10048928 16.28992015 8.57894218 16 12 C13.86320715 15.38939556 12.8225233 16.72582557 9 18 C6.03 18 3.06 18 0 18 C0 12.06 0 6.12 0 0 Z M2 2 C2 6.62 2 11.24 2 16 C8.34635893 16.41880893 8.34635893 16.41880893 11.4375 15.0625 C13.65730492 12.13235751 13.43949441 9.65209667 13.43359375 6.05859375 C13.16788608 3.60646941 13.16788608 3.60646941 10 2 C7.94290404 1.75944532 7.94290404 1.75944532 5.8125 1.875 C4.554375 1.91625 3.29625 1.9575 2 2 Z " fill="#9D7F46" transform="translate(318,328)"/>
<path d="M0 0 C0.66 0 1.32 0 2 0 C3.72267691 15.68806739 5.21620387 31.19309484 5 47 C4.34 46.67 3.68 46.34 3 46 C2.49755859 43.06347656 2.49755859 43.06347656 2.1484375 39.140625 C2.08467926 38.44040222 2.02092102 37.74017944 1.95523071 37.01873779 C1.82142749 35.52607379 1.69228943 34.03298557 1.56738281 32.53955078 C1.37919585 30.29993484 1.17531808 28.06220511 0.96875 25.82421875 C0.1987952 17.1969796 -0.18731889 8.66964817 0 0 Z " fill="#D6C880" transform="translate(143,180)"/>
<path d="M0 0 C2.31 0 4.62 0 7 0 C7 1.98 7 3.96 7 6 C-16.1 6 -39.2 6 -63 6 C-63 5.67 -63 5.34 -63 5 C-59.00043584 4.66129817 -55.00028974 4.33001275 -51 4 C-49.87464844 3.90460938 -48.74929688 3.80921875 -47.58984375 3.7109375 C-41.70349155 3.22901393 -35.9059119 2.88419781 -30 3 C-30 3.33 -30 3.66 -30 4 C-18.12 4.33 -6.24 4.66 6 5 C6 3.68 6 2.36 6 1 C4.02 1 2.04 1 0 1 C0 0.67 0 0.34 0 0 Z " fill="#42331A" transform="translate(343,376)"/>
<path d="M0 0 C3.96 0 7.92 0 12 0 C12 0.66 12 1.32 12 2 C9.03 2 6.06 2 3 2 C3 3.98 3 5.96 3 8 C5.64 8 8.28 8 11 8 C11 8.66 11 9.32 11 10 C8.36 10 5.72 10 3 10 C3 11.98 3 13.96 3 16 C5.97 16 8.94 16 12 16 C12 16.66 12 17.32 12 18 C8.04 18 4.08 18 0 18 C0 12.06 0 6.12 0 0 Z " fill="#856A39" transform="translate(300,328)"/>
<path d="M0 0 C3.96 0 7.92 0 12 0 C12 0.66 12 1.32 12 2 C9.03 2 6.06 2 3 2 C3 3.98 3 5.96 3 8 C5.64 8 8.28 8 11 8 C11 8.66 11 9.32 11 10 C8.36 10 5.72 10 3 10 C3 11.98 3 13.96 3 16 C5.97 16 8.94 16 12 16 C12 16.66 12 17.32 12 18 C8.04 18 4.08 18 0 18 C0 12.06 0 6.12 0 0 Z " fill="#795E31" transform="translate(278,304)"/>
<path d="M0 0 C0.33 0 0.66 0 1 0 C2.38768858 14.37327967 3.30655129 28.55802822 3 43 C0.57040987 39.35561481 0.35157454 36.17952335 -0.0625 31.9375 C-0.18383301 30.75486572 -0.18383301 30.75486572 -0.30761719 29.54833984 C-0.87950807 23.74789642 -1.36173717 17.94056698 -1.75 12.125 C-1.80679932 11.37081787 -1.86359863 10.61663574 -1.92211914 9.83959961 C-2.14452441 6.01692752 -2.19964099 3.23178023 0 0 Z " fill="#97773E" transform="translate(157,328)"/>
<path d="M0 0 C0.66 0 1.32 0 2 0 C3.5890677 11.32403587 4.49761154 22.57727299 5 34 C4.67 34 4.34 34 4 34 C3.505 36.475 3.505 36.475 3 39 C2.67 39 2.34 39 2 39 C0.78381162 25.98257939 -0.37739565 13.08304907 0 0 Z " fill="#A3874C" transform="translate(341,133)"/>
<path d="M0 0 C-0.33 0.66 -0.66 1.32 -1 2 C-3.72460938 2.50244141 -3.72460938 2.50244141 -7.34375 2.8515625 C-9.30828125 3.04492188 -9.30828125 3.04492188 -11.3125 3.2421875 C-12.34503906 3.3364502 -12.34503906 3.3364502 -13.3984375 3.43261719 C-15.4646893 3.62176756 -17.52912433 3.82518371 -19.59375 4.03125 C-37.40192327 5.76370805 -37.40192327 5.76370805 -46 4 C-46 3.67 -46 3.34 -46 3 C-40.73502624 2.56864538 -35.46973024 2.14154685 -30.20410156 1.71826172 C-28.41559703 1.57390247 -26.62718332 1.42841302 -24.83886719 1.28173828 C-22.25739655 1.0702131 -19.67561856 0.86285448 -17.09375 0.65625 C-16.30383667 0.59062866 -15.51392334 0.52500732 -14.70007324 0.45739746 C-9.78292029 0.06889261 -4.93265288 -0.05895601 0 0 Z " fill="#8B6B37" transform="translate(351,374)"/>
<path d="M0 0 C3.63 0 7.26 0 11 0 C11 0.66 11 1.32 11 2 C8.03 2 5.06 2 2 2 C2 3.98 2 5.96 2 8 C4.64 8 7.28 8 10 8 C10 8.66 10 9.32 10 10 C7.36 10 4.72 10 2 10 C2 11.98 2 13.96 2 16 C5.3 16 8.6 16 12 16 C12 16.66 12 17.32 12 18 C8.04 18 4.08 18 0 18 C0 12.06 0 6.12 0 0 Z " fill="#8D6F3A" transform="translate(283,328)"/>
<path d="M0 0 C3.63 0 7.26 0 11 0 C11 0.66 11 1.32 11 2 C8.03 2 5.06 2 2 2 C2 3.98 2 5.96 2 8 C4.64 8 7.28 8 10 8 C10 8.66 10 9.32 10 10 C7.36 10 4.72 10 2 10 C2 11.98 2 13.96 2 16 C5.3 16 8.6 16 12 16 C12 16.66 12 17.32 12 18 C8.04 18 4.08 18 0 18 C0 12.06 0 6.12 0 0 Z " fill="#856432" transform="translate(238,328)"/>
<path d="M0 0 C3.96 0 7.92 0 12 0 C12 0.66 12 1.32 12 2 C9.03 2 6.06 2 3 2 C3 3.98 3 5.96 3 8 C5.64 8 8.28 8 11 8 C11 8.66 11 9.32 11 10 C8.36 10 5.72 10 3 10 C3 12.64 3 15.28 3 18 C2.01 18 1.02 18 0 18 C0 12.06 0 6.12 0 0 Z " fill="#785D30" transform="translate(266,328)"/>
<path d="M0 0 C3.63 0 7.26 0 11 0 C11 0.66 11 1.32 11 2 C8.03 2 5.06 2 2 2 C2 3.98 2 5.96 2 8 C4.64 8 7.28 8 10 8 C10 8.66 10 9.32 10 10 C7.36 10 4.72 10 2 10 C2 11.98 2 13.96 2 16 C4.97 16 7.94 16 11 16 C11 16.66 11 17.32 11 18 C7.37 18 3.74 18 0 18 C0 12.06 0 6.12 0 0 Z " fill="#86622F" transform="translate(225,304)"/>
<path d="M0 0 C0.33 0 0.66 0 1 0 C1.77040851 6.06696699 2.09706112 11.88514973 2 18 C4.97 18 7.94 18 11 18 C11 18.33 11 18.66 11 19 C8.03 19 5.06 19 2 19 C2 20.98 2 22.96 2 25 C4.64 25 7.28 25 10 25 C10 25.33 10 25.66 10 26 C5.05 26.495 5.05 26.495 0 27 C-0.33 24.69 -0.66 22.38 -1 20 C-3.31 19.67 -5.62 19.34 -8 19 C-8 18.67 -8 18.34 -8 18 C-5.69 18 -3.38 18 -1 18 C-1.09539062 17.03578125 -1.19078125 16.0715625 -1.2890625 15.078125 C-1.39992187 13.81484375 -1.51078125 12.5515625 -1.625 11.25 C-1.74101562 9.99703125 -1.85703125 8.7440625 -1.9765625 7.453125 C-1.99888599 4.16413097 -1.77961002 2.68979224 0 0 Z " fill="#8F6027" transform="translate(160,364)"/>
<path d="M0 0 C0.99 0.33 1.98 0.66 3 1 C3 1.66 3 2.32 3 3 C2.30132812 2.97679687 1.60265625 2.95359375 0.8828125 2.9296875 C-0.48230469 2.90261719 -0.48230469 2.90261719 -1.875 2.875 C-2.77992188 2.85179687 -3.68484375 2.82859375 -4.6171875 2.8046875 C-7.18806994 2.75675164 -7.18806994 2.75675164 -9 5 C-9.3176246 6.91006306 -9.3176246 6.91006306 -9.25 9 C-9.25515625 9.70125 -9.2603125 10.4025 -9.265625 11.125 C-9.15705515 13.2435669 -9.15705515 13.2435669 -7 15 C-4.55987051 15.24287489 -4.55987051 15.24287489 -1.875 15.125 C-0.96492187 15.10695313 -0.05484375 15.08890625 0.8828125 15.0703125 C1.58148438 15.04710937 2.28015625 15.02390625 3 15 C3 15.66 3 16.32 3 17 C-0.65288193 18.21762731 -3.15754136 18.39075851 -7 18 C-10.23113684 16.12006584 -12.46821356 14.7702421 -13.58203125 11.0625 C-13.76595955 8.8040316 -13.65244307 7.17189102 -13 5 C-9.00162797 0.31897909 -6.05682908 -0.68567876 0 0 Z " fill="#67471F" transform="translate(184,328)"/>
<path d="M0 0 C3.5 0.25 3.5 0.25 5.5 2.25 C2.86 2.58 0.22 2.91 -2.5 3.25 C-2.5 4.24 -2.5 5.23 -2.5 6.25 C-1.94570313 6.44335938 -1.39140625 6.63671875 -0.8203125 6.8359375 C-0.09585937 7.09632813 0.62859375 7.35671875 1.375 7.625 C2.09429687 7.88023437 2.81359375 8.13546875 3.5546875 8.3984375 C5.5 9.25 5.5 9.25 7.5 11.25 C7.375 13.75 7.375 13.75 6.5 16.25 C3.2044247 18.91181082 -0.43339881 18.40640774 -4.5 18.25 C-4.83 17.26 -5.16 16.27 -5.5 15.25 C-2.53 15.25 0.44 15.25 3.5 15.25 C3.5 13.93 3.5 12.61 3.5 11.25 C-0.955 9.27 -0.955 9.27 -5.5 7.25 C-5.625 4.875 -5.625 4.875 -5.5 2.25 C-3.5 0.25 -3.5 0.25 0 0 Z " fill="#7C5F30" transform="translate(265.5,303.75)"/>
<path d="M0 0 C3.5 0.25 3.5 0.25 5.5 2.25 C2.86 2.58 0.22 2.91 -2.5 3.25 C-2.5 4.24 -2.5 5.23 -2.5 6.25 C-1.65115234 6.55744141 -1.65115234 6.55744141 -0.78515625 6.87109375 C-0.05167969 7.14050781 0.68179688 7.40992188 1.4375 7.6875 C2.16839844 7.95433594 2.89929688 8.22117187 3.65234375 8.49609375 C5.5 9.25 5.5 9.25 6.5 10.25 C6.54080783 12.24958364 6.54254356 14.25045254 6.5 16.25 C2.86576791 18.57590854 -0.27088331 18.41265833 -4.5 18.25 C-4.83 17.26 -5.16 16.27 -5.5 15.25 C-2.53 15.25 0.44 15.25 3.5 15.25 C3.5 13.93 3.5 12.61 3.5 11.25 C-0.955 9.27 -0.955 9.27 -5.5 7.25 C-5.625 4.875 -5.625 4.875 -5.5 2.25 C-3.5 0.25 -3.5 0.25 0 0 Z " fill="#80602F" transform="translate(247.5,303.75)"/>
<path d="M0 0 C0.99 0 1.98 0 3 0 C3.11638036 3.24969769 3.18730581 6.4988583 3.25 9.75 C3.30027344 11.13058594 3.30027344 11.13058594 3.3515625 12.5390625 C3.45026617 19.34961554 3.45026617 19.34961554 1.171875 22.640625 C-1 24 -1 24 -4 24 C-4 23.34 -4 22.68 -4 22 C-3.01 21.67 -2.02 21.34 -1 21 C-0.67 14.07 -0.34 7.14 0 0 Z " fill="#674B23" transform="translate(216,304)"/>
<path d="M0 0 C0.66 0 1.32 0 2 0 C2.83371359 2.95508447 3.17889534 5.70109613 3.31640625 8.765625 C3.35830078 9.65507812 3.40019531 10.54453125 3.44335938 11.4609375 C3.48267578 12.38132813 3.52199219 13.30171875 3.5625 14.25 C3.60568359 15.18585938 3.64886719 16.12171875 3.69335938 17.0859375 C3.7991805 19.39048641 3.90126557 21.69513839 4 24 C3.34 24 2.68 24 2 24 C1.67 25.32 1.34 26.64 1 28 C0.00736571 18.64087671 -0.10731538 9.39605802 0 0 Z " fill="#BDAB6A" transform="translate(141,156)"/>
<path d="M0 0 C0 0.66 0 1.32 0 2 C-24.98265839 4.38776806 -24.98265839 4.38776806 -35 4 C-35 3.67 -35 3.34 -35 3 C-23.26707812 1.10553451 -11.91605003 -0.54072832 0 0 Z " fill="#A27E42" transform="translate(239,105)"/>
<path d="M0 0 C0.33 0 0.66 0 1 0 C2.2138361 10.66441713 2.09531193 21.28270321 2 32 C1.34 32 0.68 32 0 32 C-0.66 24.08 -1.32 16.16 -2 8 C-1.34 8 -0.68 8 0 8 C0 5.36 0 2.72 0 0 Z " fill="#AE995B" transform="translate(358,313)"/>
<path d="M0 0 C0.33 0 0.66 0 1 0 C2.2138361 10.66441713 2.09531193 21.28270321 2 32 C1.34 32 0.68 32 0 32 C-0.66 24.08 -1.32 16.16 -2 8 C-1.67 8 -1.34 8 -1 8 C-0.67 5.36 -0.34 2.72 0 0 Z " fill="#B7A768" transform="translate(356,289)"/>
<path d="M0 0 C0.99 0.495 0.99 0.495 2 1 C2.4822545 3.91436518 2.84462414 6.75274613 3.125 9.6875 C3.21136719 10.49123047 3.29773438 11.29496094 3.38671875 12.12304688 C4.63198343 24.21002071 4.63198343 24.21002071 2.5 26.875 C1.7575 27.431875 1.7575 27.431875 1 28 C0.00736571 18.64087671 -0.10731538 9.39605802 0 0 Z " fill="#BDA866" transform="translate(344,166)"/>
<path d="M0 0 C0.33 0 0.66 0 1 0 C1.87686585 6.73184413 2.12387197 13.2785368 2.0625 20.0625 C2.05798828 21.02349609 2.05347656 21.98449219 2.04882812 22.97460938 C2.03717706 25.31647422 2.02082025 27.65820181 2 30 C-0.53073475 27.46926525 -0.36225235 26.29071942 -0.6328125 22.7734375 C-0.71660156 21.7421875 -0.80039063 20.7109375 -0.88671875 19.6484375 C-0.96535156 18.56820313 -1.04398438 17.48796875 -1.125 16.375 C-1.21136719 15.28703125 -1.29773438 14.1990625 -1.38671875 13.078125 C-1.59925957 10.38594123 -1.80332432 7.69338172 -2 5 C-1.67 5 -1.34 5 -1 5 C-0.67 3.35 -0.34 1.7 0 0 Z " fill="#B39C5D" transform="translate(153,281)"/>
<path d="M0 0 C0.33 2.31 0.66 4.62 1 7 C3.97 7.33 6.94 7.66 10 8 C10 8.33 10 8.66 10 9 C7.03 9 4.06 9 1 9 C1 9.99 1 10.98 1 12 C0.34 12 -0.32 12 -1 12 C-1.33 12.66 -1.66 13.32 -2 14 C-2.92844389 9.66726186 -2.92844389 6.33273814 -2 2 C-7.94 2.495 -7.94 2.495 -14 3 C-14 2.34 -14 1.68 -14 1 C-9.27685687 0.22887459 -4.78478822 -0.09764874 0 0 Z " fill="#926930" transform="translate(340,97)"/>
<path d="M0 0 C0.99 0.33 1.98 0.66 3 1 C3.94220126 6.52708611 4.12116149 11.83758352 4.0625 17.4375 C4.05798828 18.26443359 4.05347656 19.09136719 4.04882812 19.94335938 C4.03715811 21.96227146 4.01922718 23.98114574 4 26 C3.34 25.67 2.68 25.34 2 25 C1.58935547 22.59155273 1.58935547 22.59155273 1.3671875 19.43359375 C1.28339844 18.30888672 1.19960938 17.18417969 1.11328125 16.02539062 C1.03464844 14.84138672 0.95601563 13.65738281 0.875 12.4375 C0.74544922 10.65569336 0.74544922 10.65569336 0.61328125 8.83789062 C0.40035608 5.89242581 0.19633543 2.94660965 0 0 Z " fill="#D6C77E" transform="translate(352,272)"/>
<path d="M0 0 C1.98113411 3.02383627 1.67136973 5.30444447 1.1875 8.8125 C-1.3125 11.75 -1.3125 11.75 -3.8125 13.8125 C-4.4725 13.1525 -5.1325 12.4925 -5.8125 11.8125 C-4.8225 11.1525 -3.8325 10.4925 -2.8125 9.8125 C-2.44887182 7.60524927 -2.44887182 7.60524927 -2.625 5.1875 C-2.686875 3.74375 -2.74875 2.3 -2.8125 0.8125 C-6.1125 0.1525 -9.4125 -0.5075 -12.8125 -1.1875 C-12.8125 -1.5175 -12.8125 -1.8475 -12.8125 -2.1875 C-7.46899165 -3.43017636 -4.55926912 -2.98710735 0 0 Z " fill="#8D723F" transform="translate(332.8125,331.1875)"/>
<path d="M0 0 C0.66 0 1.32 0 2 0 C3.32388229 6.43028541 4.24794402 12.4294834 4 19 C3.34 19 2.68 19 2 19 C2 20.65 2 22.3 2 24 C1.67 24 1.34 24 1 24 C0.67 16.08 0.34 8.16 0 0 Z " fill="#AD9153" transform="translate(137,113)"/>
<path d="M0 0 C0 0.66 0 1.32 0 2 C-1.11375 2.103125 -2.2275 2.20625 -3.375 2.3125 C-4.57125 2.539375 -5.7675 2.76625 -7 3 C-9.31282587 6.46923881 -9.42478586 7.92205575 -9 12 C-7.70790088 13.79252059 -7.70790088 13.79252059 -6 15 C-5.34 15.66 -4.68 16.32 -4 17 C-6.875 16.6875 -6.875 16.6875 -10 16 C-12.48386059 12.27420911 -12.3804212 10.41288598 -12 6 C-9.02605256 -0.21825373 -6.63446454 -0.12286045 0 0 Z " fill="#775526" transform="translate(204,328)"/>
<path d="M0 0 C0.66 0 1.32 0 2 0 C3.03387512 8.0125322 3.10466648 15.92905177 3 24 C2.34 23.67 1.68 23.34 1 23 C-0.29327751 15.36966266 -0.09882151 7.719058 0 0 Z " fill="#F2E999" transform="translate(145,203)"/>
<path d="M0 0 C3.63 0 7.26 0 11 0 C11 0.66 11 1.32 11 2 C8.03 2 5.06 2 2 2 C2 3.98 2 5.96 2 8 C4.31 8 6.62 8 9 8 C9 8.33 9 8.66 9 9 C4.545 9.495 4.545 9.495 0 10 C0 6.7 0 3.4 0 0 Z " fill="#876936" transform="translate(279,304)"/>
<path d="M0 0 C0.66 0 1.32 0 2 0 C3.26237731 2.52475462 3.09856404 4.31200466 3.0625 7.125 C3.05347656 8.03507812 3.04445313 8.94515625 3.03515625 9.8828125 C3.02355469 10.58148438 3.01195312 11.28015625 3 12 C2.34 12 1.68 12 1 12 C1 14.31 1 16.62 1 19 C0.67 19 0.34 19 0 19 C0 12.73 0 6.46 0 0 Z " fill="#816130" transform="translate(339,109)"/>
<path d="M0 0 C0.33 0 0.66 0 1 0 C1.28875 1.11375 1.5775 2.2275 1.875 3.375 C2.69241329 7.00291092 2.69241329 7.00291092 5 9 C7.44012949 9.24287489 7.44012949 9.24287489 10.125 9.125 C11.03507813 9.10695313 11.94515625 9.08890625 12.8828125 9.0703125 C13.58148438 9.04710937 14.28015625 9.02390625 15 9 C15 9.66 15 10.32 15 11 C11.39427296 12.20190901 8.7897565 12.32670315 5 12 C2.0625 10.5 2.0625 10.5 0 8 C-0.41708655 5.19803394 -0.23811939 2.85743265 0 0 Z " fill="#7C5626" transform="translate(172,334)"/>
<path d="M0 0 C0.33 0 0.66 0 1 0 C1.33 5.61 1.66 11.22 2 17 C1.01 16.67 0.02 16.34 -1 16 C-1.22281874 14.08496326 -1.42771076 12.16783494 -1.625 10.25 C-1.74101562 9.18265625 -1.85703125 8.1153125 -1.9765625 7.015625 C-2.00029475 3.96207601 -1.61420985 2.53837579 0 0 Z " fill="#7C5827" transform="translate(160,364)"/>
<path d="M0 0 C0.33 0 0.66 0 1 0 C1 6.27 1 12.54 1 19 C-1.21428769 15.67856847 -1.42082766 13.97868274 -1.75 10.0625 C-1.84796875 9.02222656 -1.9459375 7.98195313 -2.046875 6.91015625 C-1.9992226 3.95173655 -1.5506956 2.47514874 0 0 Z " fill="#8E6933" transform="translate(159,352)"/>
<path d="M0 0 C0 0.99 0 1.98 0 3 C-0.515625 2.690625 -1.03125 2.38125 -1.5625 2.0625 C-4.66665423 0.70940713 -7.65115007 0.38640576 -11 0 C-11 4.62 -11 9.24 -11 14 C-11.33 14 -11.66 14 -12 14 C-12 9.05 -12 4.1 -12 -1 C-6.39323726 -1.93446046 -4.91191945 -1.98815787 0 0 Z " fill="#614722" transform="translate(230,330)"/>
<path d="M0 0 C0.99 0.495 0.99 0.495 2 1 C2.4140625 3.72265625 2.4140625 3.72265625 2.625 7.0625 C2.69976562 8.16722656 2.77453125 9.27195313 2.8515625 10.41015625 C2.90054687 11.26480469 2.94953125 12.11945313 3 13 C2.67 13 2.34 13 2 13 C1.67 14.65 1.34 16.3 1 18 C0.67 18 0.34 18 0 18 C0 12.06 0 6.12 0 0 Z " fill="#AA9053" transform="translate(343,154)"/>
<path d="M0 0 C0.66 0 1.32 0 2 0 C2.33 3.96 2.66 7.92 3 12 C2.34 12 1.68 12 1 12 C0.67 13.32 0.34 14.64 0 16 C0 10.72 0 5.44 0 0 Z " fill="#CABA75" transform="translate(142,168)"/>
<path d="M0 0 C0.99 0.495 0.99 0.495 2 1 C2.51953125 3.6171875 2.51953125 3.6171875 2.8125 6.875 C2.97685547 8.47988281 2.97685547 8.47988281 3.14453125 10.1171875 C3 13 3 13 0 16 C0 10.72 0 5.44 0 0 Z " fill="#B69E5E" transform="translate(344,166)"/>
<path d="M0 0 C1.65 0.33 3.3 0.66 5 1 C4.67 2.65 4.34 4.3 4 6 C2.35 5.67 0.7 5.34 -1 5 C-0.67 3.35 -0.34 1.7 0 0 Z " fill="#8A622C" transform="translate(238,197)"/>
<path d="M0 0 C1.32 0 2.64 0 4 0 C4.33 1.65 4.66 3.3 5 5 C3.35 5.33 1.7 5.66 0 6 C-0.38218767 4.34385343 -0.71395102 2.67542976 -1 1 C-0.67 0.67 -0.34 0.34 0 0 Z " fill="#916931" transform="translate(262,197)"/>
<path d="M0 0 C0.66 0 1.32 0 2 0 C2.33 3.3 2.66 6.6 3 10 C2.67 10 2.34 10 2 10 C1.67 11.65 1.34 13.3 1 15 C0.67 15 0.34 15 0 15 C0 10.05 0 5.1 0 0 Z " fill="#997C43" transform="translate(341,133)"/>
<path d="M0 0 C0.99 0.495 0.99 0.495 2 1 C2.4140625 3.50390625 2.4140625 3.50390625 2.625 6.5625 C2.69976562 7.57441406 2.77453125 8.58632812 2.8515625 9.62890625 C2.92503906 10.80259766 2.92503906 10.80259766 3 12 C2.34 12 1.68 12 1 12 C0.67 12.66 0.34 13.32 0 14 C0 9.38 0 4.76 0 0 Z " fill="#E1D589" transform="translate(144,191)"/>
<path d="M0 0 C3.63 0 7.26 0 11 0 C10.67 0.66 10.34 1.32 10 2 C7.93359375 2.4140625 7.93359375 2.4140625 5.4375 2.625 C4.61121094 2.69976562 3.78492188 2.77453125 2.93359375 2.8515625 C1.97646484 2.92503906 1.97646484 2.92503906 1 3 C0.67 4.32 0.34 5.64 0 7 C0 4.69 0 2.38 0 0 Z " fill="#8C7340" transform="translate(139,112)"/>
<path d="M0 0 C0.99 0.33 1.98 0.66 3 1 C3 5.29 3 9.58 3 14 C2.34 13.67 1.68 13.34 1 13 C0.5859375 10.05859375 0.5859375 10.05859375 0.375 6.4375 C0.30023438 5.23996094 0.22546875 4.04242188 0.1484375 2.80859375 C0.09945313 1.88175781 0.05046875 0.95492188 0 0 Z " fill="#E7DA8C" transform="translate(352,272)"/>
<path d="M0 0 C0.99 0 1.98 0 3 0 C3 3.96 3 7.92 3 12 C2.34 12 1.68 12 1 12 C0.67 8.04 0.34 4.08 0 0 Z " fill="#C2A661" transform="translate(357,333)"/>
<path d="M0 0 C0.99 0 1.98 0 3 0 C3 3.96 3 7.92 3 12 C2.34 12 1.68 12 1 12 C0.67 8.04 0.34 4.08 0 0 Z " fill="#D1BB72" transform="translate(355,309)"/>
<path d="M0 0 C1.98 0.495 1.98 0.495 4 1 C3.67 2.65 3.34 4.3 3 6 C1.68 5.67 0.36 5.34 -1 5 C-0.67 3.35 -0.34 1.7 0 0 Z " fill="#91642B" transform="translate(215,197)"/>
<path d="M0 0 C0.99 0.33 1.98 0.66 3 1 C3 4.63 3 8.26 3 12 C2.34 11.67 1.68 11.34 1 11 C0.5859375 8.49609375 0.5859375 8.49609375 0.375 5.4375 C0.30023438 4.42558594 0.22546875 3.41367187 0.1484375 2.37109375 C0.09945312 1.58863281 0.05046875 0.80617188 0 0 Z " fill="#AD8E4F" transform="translate(154,321)"/>
<path d="M0 0 C0.66 0 1.32 0 2 0 C1.34 1.65 0.68 3.3 0 5 C1.32 5.33 2.64 5.66 4 6 C0.37 6 -3.26 6 -7 6 C-5.68 5.67 -4.36 5.34 -3 5 C-2.67 4.01 -2.34 3.02 -2 2 C-1.34 2 -0.68 2 0 2 C0 1.34 0 0.68 0 0 Z " fill="#362A15" transform="translate(285,298)"/>
<path d="M0 0 C0.33 0.99 0.66 1.98 1 3 C-2.47325181 4.1577506 -5.36067448 4.06866652 -9 4 C-9.33 3.01 -9.66 2.02 -10 1 C-9.36191406 1.01160156 -8.72382813 1.02320313 -8.06640625 1.03515625 C-7.24011719 1.04417969 -6.41382813 1.05320312 -5.5625 1.0625 C-4.32693359 1.07990234 -4.32693359 1.07990234 -3.06640625 1.09765625 C-1.00836062 1.23267348 -1.00836062 1.23267348 0 0 Z " fill="#886935" transform="translate(270,318)"/>
<path d="M0 0 C0 0.66 0 1.32 0 2 C-3.3 2.33 -6.6 2.66 -10 3 C-10 2.34 -10 1.68 -10 1 C-6.78548731 -0.60725635 -3.56387464 -0.05748185 0 0 Z " fill="#7D5A2A" transform="translate(326,98)"/>
<path d="M0 0 C0.33 0 0.66 0 1 0 C1.268125 0.928125 1.53625 1.85625 1.8125 2.8125 C2.93395985 5.82273432 3.60946844 7.00789036 6 9 C6.66 9.66 7.32 10.32 8 11 C5.125 10.6875 5.125 10.6875 2 10 C-0.4294516 6.3558226 -0.16179575 4.28758728 0 0 Z " fill="#835E2B" transform="translate(192,334)"/>
<path d="M0 0 C0.33 0 0.66 0 1 0 C1.58052245 3.00988272 2.05989746 5.92889402 2 9 C0.0625 11.0625 0.0625 11.0625 -2 12 C-2.66 11.34 -3.32 10.68 -4 10 C-3.01 9.34 -2.02 8.68 -1 8 C-0.42251197 6.03638136 -0.42251197 6.03638136 -0.3125 3.875 C-0.209375 2.59625 -0.10625 1.3175 0 0 Z " fill="#756035" transform="translate(331,333)"/>
</svg>
